<svg width="431" height="111" viewBox="0 0 431 111" fill="none" xmlns="http://www.w3.org/2000/svg">
<style>
  .svg-l {
    opacity: 0;
    animation-name: slideInLeft;
    animation-duration: 1s;
    animation-fill-mode: forwards;
  }

  .svg-t {
    opacity: 0;
    animation-name: slideInRight;
    animation-duration: 1s;
    animation-fill-mode: forwards;
  }

  @keyframes slideInLeft {
    from {
      transform: translateX(-100%);
    }
    50% {
      opacity: 0;
    }
    to {
      transform: translateX(0);
      opacity: 1;
    }
  }

  @keyframes slideInRight {
    from {
      transform: translateX(100%);
    }
    50% {
      opacity: 0;
    }
    to {
      transform: translateX(0);
      opacity: 1;
    }
  }
</style>
<path class="svg-l" d="M7.5 68L7.5 1.29999L21.2 1.29999L21.2 56.9L51.6 56.9V68H7.5ZM91.1898 69.2C84.5898 69.2 78.8898 67.9667 74.0898 65.5C69.3565 62.9667 65.7232 59.1667 63.1898 54.1C60.6565 48.9667 59.3898 42.5 59.3898 34.7C59.3898 23.3 62.1232 14.7 67.5898 8.9C73.1232 3.03333 80.9898 0.099998 91.1898 0.099998C97.7898 0.099998 103.457 1.36666 108.19 3.9C112.99 6.36666 116.657 10.1667 119.19 15.3C121.723 20.3667 122.99 26.8 122.99 34.6C122.99 46 120.223 54.6333 114.69 60.5C109.223 66.3 101.39 69.2 91.1898 69.2ZM91.1898 57.8C95.1232 57.8 98.3898 57.0333 100.99 55.5C103.657 53.9667 105.657 51.5 106.99 48.1C108.323 44.6333 108.99 40.1333 108.99 34.6C108.99 29 108.323 24.5333 106.99 21.2C105.657 17.8 103.657 15.3333 100.99 13.8C98.3898 12.2667 95.1232 11.5 91.1898 11.5C87.2565 11.5 83.9565 12.3 81.2898 13.9C78.6898 15.4333 76.7232 17.9 75.3898 21.3C74.0565 24.6333 73.3898 29.1 73.3898 34.7C73.3898 40.3 74.0565 44.8 75.3898 48.2C76.7232 51.5333 78.6898 53.9667 81.2898 55.5C83.9565 57.0333 87.2565 57.8 91.1898 57.8ZM164.732 69.7C155.065 69.7 147.732 67.4667 142.732 63C137.799 58.4667 135.332 51.6 135.332 42.4V1.29999L149.432 1.29999V42C149.432 47.7333 150.632 51.9667 153.032 54.7C155.432 57.4333 159.132 58.8 164.132 58.8C168.865 58.8 172.499 57.4333 175.032 54.7C177.632 51.9667 178.932 47.7333 178.932 42V1.29999L191.932 1.29999V42.4C191.932 48.5333 190.799 53.6333 188.532 57.7C186.265 61.7667 183.099 64.8 179.032 66.8C174.965 68.7333 170.199 69.7 164.732 69.7Z" fill="#333333"/>
<path class="svg-t" d="M218.591 105L218.591 49.2L198.491 49.2V38.3L252.491 38.3V49.2L232.191 49.2L232.191 105L218.591 105ZM291.685 106.7C282.018 106.7 274.685 104.467 269.685 100C264.752 95.4667 262.285 88.6 262.285 79.4V38.3H276.385V79C276.385 84.7333 277.585 88.9667 279.985 91.7C282.385 94.4333 286.085 95.8 291.085 95.8C295.818 95.8 299.452 94.4333 301.985 91.7C304.585 88.9667 305.885 84.7333 305.885 79V38.3H318.885V79.4C318.885 85.5333 317.752 90.6333 315.485 94.7C313.218 98.7667 310.052 101.8 305.985 103.8C301.918 105.733 297.152 106.7 291.685 106.7ZM355.267 106.2C351.934 106.2 348.934 106.033 346.267 105.7C343.667 105.367 341.267 104.833 339.067 104.1C336.867 103.367 334.667 102.433 332.467 101.3V88.1C335.267 90.3667 338.567 92.1667 342.367 93.5C346.167 94.7667 350.001 95.4 353.867 95.4C357.467 95.4 360.167 94.7 361.967 93.3C363.834 91.8333 364.767 89.7667 364.767 87.1C364.767 85.0333 364.001 83.3667 362.467 82.1C361.001 80.8333 359.034 79.7333 356.567 78.8C354.101 77.8667 351.401 76.9 348.467 75.9C346.401 75.1667 344.367 74.3667 342.367 73.5C340.434 72.5667 338.667 71.4 337.067 70C335.534 68.6 334.301 66.8667 333.367 64.8C332.434 62.6667 331.967 60.0667 331.967 57C331.967 54.5333 332.434 52.1 333.367 49.7C334.301 47.3 335.734 45.1333 337.667 43.2C339.601 41.2667 342.101 39.7333 345.167 38.6C348.301 37.4667 351.967 36.9 356.167 36.9C358.901 36.9 361.267 37.0667 363.267 37.4C365.334 37.7333 367.267 38.2333 369.067 38.9C370.934 39.5667 372.901 40.4 374.967 41.4V54.6C373.367 53.4667 371.667 52.4 369.867 51.4C368.067 50.3333 366.134 49.4667 364.067 48.8C362.067 48.1333 359.867 47.7667 357.467 47.7C355.067 47.6333 353.001 47.9 351.267 48.5C349.534 49.1 348.201 50 347.267 51.2C346.334 52.4 345.867 53.8333 345.867 55.5C345.867 57.5667 346.434 59.2333 347.567 60.5C348.767 61.7 350.401 62.7 352.467 63.5C354.534 64.3 356.867 65.1 359.467 65.9C362.067 66.7 364.534 67.6 366.867 68.6C369.201 69.6 371.234 70.8333 372.967 72.3C374.767 73.7 376.167 75.4667 377.167 77.6C378.167 79.7333 378.667 82.3333 378.667 85.4C378.667 89.1333 377.801 92.6 376.067 95.8C374.401 98.9333 371.834 101.467 368.367 103.4C364.901 105.267 360.534 106.2 355.267 106.2Z" fill="#86C7C4"/>
<path d="M14.5146 80.8081L14.5146 89.3848H15.335C15.4863 89.3848 15.5937 89.4141 15.6572 89.4727C15.7207 89.5264 15.7524 89.5996 15.7524 89.6924C15.7524 89.7803 15.7207 89.8535 15.6572 89.9121C15.5937 89.9707 15.4863 90 15.335 90H13.8921V88.7769C13.1792 89.7534 12.2734 90.2417 11.1748 90.2417C10.6182 90.2417 10.0835 90.0952 9.5708 89.8022C9.06299 89.5044 8.66016 89.082 8.3623 88.5352C8.06934 87.9883 7.92285 87.4243 7.92285 86.8433C7.92285 86.2573 8.06934 85.6934 8.3623 85.1514C8.66016 84.6045 9.06299 84.1821 9.5708 83.8843C10.0835 83.5864 10.6206 83.4375 11.1821 83.4375C12.2563 83.4375 13.1597 83.9258 13.8921 84.9023V81.4307H13.0718C12.9204 81.4307 12.813 81.4014 12.7495 81.3428C12.686 81.2842 12.6543 81.2085 12.6543 81.1157C12.6543 81.0278 12.686 80.9546 12.7495 80.896C12.813 80.8374 12.9204 80.8081 13.0718 80.8081H14.5146ZM13.8921 86.8433C13.8921 86.062 13.6284 85.4028 13.1011 84.8657C12.5737 84.3286 11.9463 84.0601 11.2188 84.0601C10.4863 84.0601 9.85645 84.3286 9.3291 84.8657C8.80176 85.4028 8.53809 86.062 8.53809 86.8433C8.53809 87.6196 8.80176 88.2788 9.3291 88.8208C9.85645 89.3579 10.4863 89.6265 11.2187 89.6265C11.9463 89.6265 12.5737 89.3579 13.1011 88.8208C13.6284 88.2788 13.8921 87.6196 13.8921 86.8433ZM23.8384 86.9751H17.5688C17.6763 87.771 18.0083 88.4131 18.5649 88.9014C19.1265 89.3848 19.8198 89.6265 20.645 89.6265C21.104 89.6265 21.585 89.5508 22.0879 89.3994C22.5908 89.248 23.001 89.0479 23.3184 88.7988C23.4111 88.7256 23.4917 88.689 23.5601 88.689C23.6382 88.689 23.7065 88.7207 23.7651 88.7842C23.8237 88.8428 23.853 88.9136 23.853 88.9966C23.853 89.0796 23.814 89.1602 23.7358 89.2383C23.5015 89.4824 23.084 89.7119 22.4834 89.9268C21.8877 90.1367 21.2749 90.2417 20.645 90.2417C19.5903 90.2417 18.709 89.8975 18.001 89.209C17.2979 88.5156 16.9463 87.6782 16.9463 86.6968C16.9463 85.8032 17.2759 85.0366 17.9351 84.397C18.5991 83.7573 19.4194 83.4375 20.396 83.4375C21.4019 83.4375 22.2295 83.7671 22.8789 84.4263C23.5283 85.0806 23.8481 85.9302 23.8384 86.9751ZM23.2158 86.3525C23.0938 85.6738 22.7715 85.1221 22.249 84.6973C21.7314 84.2725 21.1138 84.0601 20.396 84.0601C19.6782 84.0601 19.0605 84.27 18.543 84.6899C18.0254 85.1099 17.7031 85.6641 17.5762 86.3525H23.2158ZM31.5508 84.0601C31.5508 83.9185 31.5801 83.8159 31.6387 83.7524C31.6973 83.689 31.7705 83.6572 31.8584 83.6572C31.9512 83.6572 32.0269 83.689 32.0854 83.7524C32.144 83.8159 32.1733 83.9233 32.1733 84.0747V85.1294C32.1733 85.2759 32.144 85.3809 32.0854 85.4443C32.0269 85.5078 31.9512 85.5396 31.8584 85.5396C31.7754 85.5396 31.7046 85.5127 31.646 85.459C31.5923 85.4053 31.5605 85.3174 31.5508 85.1953C31.5215 84.9023 31.3701 84.6606 31.0967 84.4702C30.6963 84.1968 30.1665 84.0601 29.5073 84.0601C28.8188 84.0601 28.2842 84.1992 27.9033 84.4775C27.6152 84.6875 27.4712 84.9219 27.4712 85.1807C27.4712 85.4736 27.6421 85.7178 27.9839 85.9131C28.2183 86.0498 28.6626 86.1548 29.3169 86.228C30.1714 86.3208 30.7646 86.4258 31.0967 86.543C31.5703 86.7139 31.9219 86.9507 32.1514 87.2534C32.3857 87.5562 32.5029 87.8833 32.5029 88.2349C32.5029 88.7573 32.2515 89.2236 31.7485 89.6338C31.2456 90.0391 30.5083 90.2417 29.5366 90.2417C28.5649 90.2417 27.769 89.9951 27.1489 89.502C27.1489 89.668 27.1392 89.7754 27.1196 89.8242C27.1001 89.873 27.0635 89.9146 27.0098 89.9487C26.9609 89.9829 26.9048 90 26.8413 90C26.7534 90 26.6802 89.9683 26.6216 89.9048C26.563 89.8413 26.5337 89.7363 26.5337 89.5898V88.3228C26.5337 88.1763 26.5605 88.0713 26.6143 88.0078C26.6729 87.9443 26.7485 87.9126 26.8413 87.9126C26.9292 87.9126 27.0024 87.9443 27.061 88.0078C27.1245 88.0664 27.1562 88.147 27.1562 88.2495C27.1562 88.4741 27.2124 88.6621 27.3247 88.8135C27.4956 89.0479 27.7666 89.2432 28.1377 89.3994C28.5137 89.5508 28.9727 89.6265 29.5146 89.6265C30.3154 89.6265 30.9111 89.4775 31.3018 89.1797C31.6924 88.8818 31.8877 88.5669 31.8877 88.2349C31.8877 87.854 31.6899 87.5488 31.2944 87.3193C30.894 87.0898 30.3105 86.936 29.5439 86.8579C28.7822 86.7798 28.2354 86.6772 27.9033 86.5503C27.5713 86.4233 27.3125 86.2329 27.127 85.979C26.9414 85.7251 26.8486 85.4517 26.8486 85.1587C26.8486 84.6313 27.1074 84.2139 27.625 83.9062C28.1426 83.5938 28.7603 83.4375 29.478 83.4375C30.3276 83.4375 31.0186 83.645 31.5508 84.0601ZM38.8311 80.5005V82.0898H37.9229V80.5005H38.8311ZM38.853 83.6572V89.3848H41.27C41.4214 89.3848 41.5288 89.4141 41.5923 89.4727C41.6558 89.5264 41.6875 89.5996 41.6875 89.6924C41.6875 89.7803 41.6558 89.8535 41.5923 89.9121C41.5288 89.9707 41.4214 90 41.27 90H35.8208C35.6743 90 35.5693 89.9707 35.5059 89.9121C35.4424 89.8535 35.4106 89.7803 35.4106 89.6924C35.4106 89.5996 35.4424 89.5264 35.5059 89.4727C35.5693 89.4141 35.6743 89.3848 35.8208 89.3848H38.2378V84.2798H36.4434C36.2969 84.2798 36.1895 84.2505 36.1211 84.1919C36.0576 84.1333 36.0259 84.0601 36.0259 83.9722C36.0259 83.8794 36.0576 83.8037 36.1211 83.7451C36.1846 83.6865 36.292 83.6572 36.4434 83.6572H38.853ZM49.605 84.7852V83.6572H51.0479C51.1943 83.6572 51.2993 83.6865 51.3628 83.7451C51.4263 83.8037 51.458 83.8794 51.458 83.9722C51.458 84.0601 51.4263 84.1333 51.3628 84.1919C51.2993 84.2505 51.1943 84.2798 51.0479 84.2798H50.2202V90.4248C50.2202 90.835 50.1323 91.2012 49.9565 91.5234C49.8394 91.7383 49.644 91.9604 49.3706 92.1899C49.0972 92.4194 48.8481 92.583 48.6235 92.6807C48.3989 92.7783 48.0986 92.8271 47.7227 92.8271H45.9795C45.833 92.8271 45.728 92.7979 45.6646 92.7393C45.6011 92.6855 45.5693 92.6123 45.5693 92.5195C45.5693 92.4268 45.6011 92.3511 45.6646 92.2925C45.728 92.2339 45.833 92.2046 45.9795 92.2046L47.7446 92.2119C48.106 92.2119 48.4307 92.1191 48.7188 91.9336C49.0117 91.748 49.2534 91.4771 49.4438 91.1206C49.5513 90.9155 49.605 90.6543 49.605 90.3369V88.4912C48.9458 89.3945 48.0962 89.8462 47.0562 89.8462C46.2114 89.8462 45.4814 89.5337 44.8662 88.9087C44.2559 88.2788 43.9507 87.522 43.9507 86.6382C43.9507 85.7544 44.2559 85 44.8662 84.375C45.4814 83.75 46.2114 83.4375 47.0562 83.4375C48.0962 83.4375 48.9458 83.8867 49.605 84.7852ZM49.605 86.6382C49.605 85.9155 49.356 85.3052 48.8579 84.8071C48.3647 84.3091 47.7739 84.0601 47.0854 84.0601C46.397 84.0601 45.8062 84.3115 45.313 84.8145C44.8198 85.3125 44.5732 85.9204 44.5732 86.6382C44.5732 87.3608 44.8198 87.9736 45.313 88.4766C45.8062 88.9746 46.397 89.2236 47.0854 89.2236C47.7739 89.2236 48.3647 88.9746 48.8579 88.4766C49.356 87.9736 49.605 87.3608 49.605 86.6382ZM54.5562 83.6572V84.5874C54.9858 84.1528 55.374 83.8525 55.7207 83.6865C56.0674 83.5205 56.458 83.4375 56.8926 83.4375C57.3613 83.4375 57.7886 83.5376 58.1743 83.7378C58.4478 83.8843 58.6943 84.1284 58.9141 84.4702C59.1387 84.8071 59.251 85.1538 59.251 85.5103V89.3848H59.771C59.9175 89.3848 60.0225 89.4141 60.0859 89.4727C60.1494 89.5264 60.1812 89.5996 60.1812 89.6924C60.1812 89.7803 60.1494 89.8535 60.0859 89.9121C60.0225 89.9707 59.9175 90 59.771 90H58.123C57.9717 90 57.8643 89.9707 57.8008 89.9121C57.7373 89.8535 57.7056 89.7803 57.7056 89.6924C57.7056 89.5996 57.7373 89.5264 57.8008 89.4727C57.8643 89.4141 57.9717 89.3848 58.123 89.3848H58.6357V85.6128C58.6357 85.1782 58.4771 84.812 58.1597 84.5142C57.8423 84.2114 57.4175 84.0601 56.8853 84.0601C56.48 84.0601 56.1284 84.1431 55.8306 84.3091C55.5327 84.4702 55.1079 84.8755 54.5562 85.5249V89.3848H55.252C55.3984 89.3848 55.5034 89.4141 55.5669 89.4727C55.6304 89.5264 55.6621 89.5996 55.6621 89.6924C55.6621 89.7803 55.6304 89.8535 55.5669 89.9121C55.5034 89.9707 55.3984 90 55.252 90H53.2451C53.0986 90 52.9937 89.9707 52.9302 89.9121C52.8667 89.8535 52.835 89.7803 52.835 89.6924C52.835 89.5996 52.8667 89.5264 52.9302 89.4727C52.9937 89.4141 53.0986 89.3848 53.2451 89.3848H53.9409V84.2798H53.4209C53.2744 84.2798 53.1694 84.2505 53.106 84.1919C53.0425 84.1333 53.0107 84.0576 53.0107 83.9648C53.0107 83.877 53.0425 83.8037 53.106 83.7451C53.1694 83.6865 53.2744 83.6572 53.4209 83.6572L54.5562 83.6572ZM76.3311 90V89.1138C75.4375 89.8657 74.4829 90.2417 73.4673 90.2417C72.73 90.2417 72.1538 90.0562 71.7388 89.6851C71.3237 89.3091 71.1162 88.8501 71.1162 88.3081C71.1162 87.7124 71.3896 87.1924 71.9365 86.748C72.4834 86.3037 73.2817 86.0815 74.3315 86.0815C74.6147 86.0815 74.9224 86.1011 75.2544 86.1401C75.5864 86.1743 75.9453 86.2305 76.3311 86.3086V85.3125C76.3311 84.9756 76.1748 84.6826 75.8623 84.4336C75.5498 84.1846 75.0811 84.0601 74.4561 84.0601C73.9775 84.0601 73.3062 84.1992 72.4419 84.4775C72.2856 84.5264 72.1855 84.5508 72.1416 84.5508C72.0635 84.5508 71.9951 84.5215 71.9365 84.4629C71.8828 84.4043 71.856 84.3311 71.856 84.2432C71.856 84.1602 71.8804 84.0942 71.9292 84.0454C71.9976 83.9722 72.2734 83.8721 72.7568 83.7451C73.5186 83.54 74.0947 83.4375 74.4854 83.4375C75.2617 83.4375 75.8672 83.6304 76.3018 84.0161C76.7363 84.397 76.9536 84.8291 76.9536 85.3125V89.3848H77.7739C77.9253 89.3848 78.0327 89.4141 78.0962 89.4727C78.1597 89.5264 78.1914 89.5996 78.1914 89.6924C78.1914 89.7803 78.1597 89.8535 78.0962 89.9121C78.0327 89.9707 77.9253 90 77.7739 90H76.3311ZM76.3311 86.9385C76.043 86.8555 75.7378 86.7944 75.4155 86.7554C75.0933 86.7163 74.7539 86.6968 74.3975 86.6968C73.5039 86.6968 72.8057 86.8896 72.3027 87.2754C71.9219 87.5635 71.7314 87.9077 71.7314 88.3081C71.7314 88.6792 71.8755 88.9917 72.1636 89.2456C72.4565 89.4995 72.8813 89.6265 73.438 89.6265C73.9702 89.6265 74.4634 89.5215 74.9175 89.3115C75.3765 89.0967 75.8477 88.7573 76.3311 88.2935V86.9385ZM81.5825 83.6572V84.5874C82.0122 84.1528 82.4004 83.8525 82.7471 83.6865C83.0938 83.5205 83.4844 83.4375 83.9189 83.4375C84.3877 83.4375 84.8149 83.5376 85.2007 83.7378C85.4741 83.8843 85.7207 84.1284 85.9404 84.4702C86.165 84.8071 86.2773 85.1538 86.2773 85.5103V89.3848H86.7974C86.9438 89.3848 87.0488 89.4141 87.1123 89.4727C87.1758 89.5264 87.2075 89.5996 87.2075 89.6924C87.2075 89.7803 87.1758 89.8535 87.1123 89.9121C87.0488 89.9707 86.9438 90 86.7974 90H85.1494C84.998 90 84.8906 89.9707 84.8271 89.9121C84.7637 89.8535 84.7319 89.7803 84.7319 89.6924C84.7319 89.5996 84.7637 89.5264 84.8271 89.4727C84.8906 89.4141 84.998 89.3848 85.1494 89.3848H85.6621V85.6128C85.6621 85.1782 85.5034 84.812 85.186 84.5142C84.8687 84.2114 84.4438 84.0601 83.9116 84.0601C83.5063 84.0601 83.1548 84.1431 82.8569 84.3091C82.5591 84.4702 82.1343 84.8755 81.5825 85.5249V89.3848H82.2783C82.4248 89.3848 82.5298 89.4141 82.5933 89.4727C82.6567 89.5264 82.6885 89.5996 82.6885 89.6924C82.6885 89.7803 82.6567 89.8535 82.5933 89.9121C82.5298 89.9707 82.4248 90 82.2783 90H80.2715C80.125 90 80.02 89.9707 79.9565 89.9121C79.8931 89.8535 79.8613 89.7803 79.8613 89.6924C79.8613 89.5996 79.8931 89.5264 79.9565 89.4727C80.02 89.4141 80.125 89.3848 80.2715 89.3848H80.9673V84.2798H80.4473C80.3008 84.2798 80.1958 84.2505 80.1323 84.1919C80.0688 84.1333 80.0371 84.0576 80.0371 83.9648C80.0371 83.877 80.0688 83.8037 80.1323 83.7451C80.1958 83.6865 80.3008 83.6572 80.4473 83.6572H81.5825ZM95.5938 80.8081V89.3848H96.4141C96.5654 89.3848 96.6729 89.4141 96.7363 89.4727C96.7998 89.5264 96.8315 89.5996 96.8315 89.6924C96.8315 89.7803 96.7998 89.8535 96.7363 89.9121C96.6729 89.9707 96.5654 90 96.4141 90H94.9712V88.7769C94.2583 89.7534 93.3525 90.2417 92.2539 90.2417C91.6973 90.2417 91.1626 90.0952 90.6499 89.8022C90.1421 89.5044 89.7393 89.082 89.4414 88.5352C89.1484 87.9883 89.002 87.4243 89.002 86.8433C89.002 86.2573 89.1484 85.6934 89.4414 85.1514C89.7393 84.6045 90.1421 84.1821 90.6499 83.8843C91.1626 83.5864 91.6997 83.4375 92.2612 83.4375C93.3354 83.4375 94.2388 83.9258 94.9712 84.9023V81.4307H94.1509C93.9995 81.4307 93.8921 81.4014 93.8286 81.3428C93.7651 81.2842 93.7334 81.2085 93.7334 81.1157C93.7334 81.0278 93.7651 80.9546 93.8286 80.896C93.8921 80.8374 93.9995 80.8081 94.1509 80.8081H95.5938ZM94.9712 86.8433C94.9712 86.062 94.7075 85.4028 94.1802 84.8657C93.6528 84.3286 93.0254 84.0601 92.2979 84.0601C91.5654 84.0601 90.9355 84.3286 90.4082 84.8657C89.8809 85.4028 89.6172 86.062 89.6172 86.8433C89.6172 87.6196 89.8809 88.2788 90.4082 88.8208C90.9355 89.3579 91.5654 89.6265 92.2979 89.6265C93.0254 89.6265 93.6528 89.3579 94.1802 88.8208C94.7075 88.2788 94.9712 87.6196 94.9712 86.8433ZM113.611 80.8081V89.3848H114.432C114.583 89.3848 114.69 89.4141 114.754 89.4727C114.817 89.5264 114.849 89.5996 114.849 89.6924C114.849 89.7803 114.817 89.8535 114.754 89.9121C114.69 89.9707 114.583 90 114.432 90H112.989V88.7769C112.276 89.7534 111.37 90.2417 110.271 90.2417C109.715 90.2417 109.18 90.0952 108.667 89.8022C108.16 89.5044 107.757 89.082 107.459 88.5352C107.166 87.9883 107.02 87.4243 107.02 86.8433C107.02 86.2573 107.166 85.6934 107.459 85.1514C107.757 84.6045 108.16 84.1821 108.667 83.8843C109.18 83.5864 109.717 83.4375 110.279 83.4375C111.353 83.4375 112.256 83.9258 112.989 84.9023V81.4307H112.168C112.017 81.4307 111.91 81.4014 111.846 81.3428C111.783 81.2842 111.751 81.2085 111.751 81.1157C111.751 81.0278 111.783 80.9546 111.846 80.896C111.91 80.8374 112.017 80.8081 112.168 80.8081H113.611ZM112.989 86.8433C112.989 86.062 112.725 85.4028 112.198 84.8657C111.67 84.3286 111.043 84.0601 110.315 84.0601C109.583 84.0601 108.953 84.3286 108.426 84.8657C107.898 85.4028 107.635 86.062 107.635 86.8433C107.635 87.6196 107.898 88.2788 108.426 88.8208C108.953 89.3579 109.583 89.6265 110.315 89.6265C111.043 89.6265 111.67 89.3579 112.198 88.8208C112.725 88.2788 112.989 87.6196 112.989 86.8433ZM122.935 86.9751H116.666C116.773 87.771 117.105 88.4131 117.662 88.9014C118.223 89.3848 118.917 89.6265 119.742 89.6265C120.201 89.6265 120.682 89.5508 121.185 89.3994C121.688 89.248 122.098 89.0479 122.415 88.7988C122.508 88.7256 122.588 88.689 122.657 88.689C122.735 88.689 122.803 88.7207 122.862 88.7842C122.92 88.8428 122.95 88.9136 122.95 88.9966C122.95 89.0796 122.911 89.1602 122.833 89.2383C122.598 89.4824 122.181 89.7119 121.58 89.9268C120.984 90.1367 120.372 90.2417 119.742 90.2417C118.687 90.2417 117.806 89.8975 117.098 89.209C116.395 88.5156 116.043 87.6782 116.043 86.6968C116.043 85.8032 116.373 85.0366 117.032 84.397C117.696 83.7573 118.516 83.4375 119.493 83.4375C120.499 83.4375 121.326 83.7671 121.976 84.4263C122.625 85.0806 122.945 85.9302 122.935 86.9751ZM122.312 86.3525C122.19 85.6738 121.868 85.1221 121.346 84.6973C120.828 84.2725 120.21 84.0601 119.493 84.0601C118.775 84.0601 118.157 84.27 117.64 84.6899C117.122 85.1099 116.8 85.6641 116.673 86.3525H122.312ZM129.153 90H128.113L125.586 84.2798H124.957C124.81 84.2798 124.705 84.2505 124.642 84.1919C124.578 84.1333 124.546 84.0576 124.546 83.9648C124.546 83.877 124.578 83.8037 124.642 83.7451C124.705 83.6865 124.81 83.6572 124.957 83.6572H127.264C127.41 83.6572 127.515 83.6865 127.579 83.7451C127.642 83.8037 127.674 83.8794 127.674 83.9722C127.674 84.0601 127.642 84.1333 127.579 84.1919C127.515 84.2505 127.41 84.2798 127.264 84.2798H126.246L128.501 89.3848H128.772L130.984 84.2798H129.959C129.812 84.2798 129.708 84.2505 129.644 84.1919C129.581 84.1333 129.549 84.0576 129.549 83.9648C129.549 83.877 129.581 83.8037 129.644 83.7451C129.708 83.6865 129.812 83.6572 129.959 83.6572H132.273C132.425 83.6572 132.53 83.6865 132.588 83.7451C132.652 83.8037 132.684 83.8794 132.684 83.9722C132.684 84.0601 132.652 84.1333 132.588 84.1919C132.53 84.2505 132.425 84.2798 132.273 84.2798H131.651L129.153 90ZM140.953 86.9751L134.683 86.9751C134.791 87.771 135.123 88.4131 135.679 88.9014C136.241 89.3848 136.934 89.6265 137.759 89.6265C138.218 89.6265 138.699 89.5508 139.202 89.3994C139.705 89.248 140.115 89.0479 140.433 88.7988C140.525 88.7256 140.606 88.689 140.674 88.689C140.752 88.689 140.821 88.7207 140.879 88.7842C140.938 88.8428 140.967 88.9136 140.967 88.9966C140.967 89.0796 140.928 89.1602 140.85 89.2383C140.616 89.4824 140.198 89.7119 139.598 89.9268C139.002 90.1367 138.389 90.2417 137.759 90.2417C136.705 90.2417 135.823 89.8975 135.115 89.209C134.412 88.5156 134.061 87.6782 134.061 86.6968C134.061 85.8032 134.39 85.0366 135.049 84.397C135.713 83.7573 136.534 83.4375 137.51 83.4375C138.516 83.4375 139.344 83.7671 139.993 84.4263C140.643 85.0806 140.962 85.9302 140.953 86.9751ZM140.33 86.3525C140.208 85.6738 139.886 85.1221 139.363 84.6973C138.846 84.2725 138.228 84.0601 137.51 84.0601C136.792 84.0601 136.175 84.27 135.657 84.6899C135.14 85.1099 134.817 85.6641 134.69 86.3525L140.33 86.3525ZM146.944 80.8081V89.3848H149.361C149.512 89.3848 149.62 89.4141 149.683 89.4727C149.747 89.5264 149.778 89.5996 149.778 89.6924C149.778 89.7803 149.747 89.8535 149.683 89.9121C149.62 89.9707 149.512 90 149.361 90H143.912C143.765 90 143.66 89.9707 143.597 89.9121C143.533 89.8535 143.501 89.7803 143.501 89.6924C143.501 89.5996 143.533 89.5264 143.597 89.4727C143.66 89.4141 143.765 89.3848 143.912 89.3848H146.329V81.4307H144.556C144.41 81.4307 144.302 81.4014 144.234 81.3428C144.17 81.2842 144.139 81.2085 144.139 81.1157C144.139 81.0278 144.17 80.9546 144.234 80.896C144.297 80.8374 144.405 80.8081 144.556 80.8081H146.944ZM159.08 86.8433C159.08 87.7808 158.743 88.5815 158.069 89.2456C157.4 89.9097 156.592 90.2417 155.645 90.2417C154.688 90.2417 153.875 89.9097 153.206 89.2456C152.537 88.5767 152.203 87.7759 152.203 86.8433C152.203 85.9058 152.537 85.105 153.206 84.4409C153.875 83.772 154.688 83.4375 155.645 83.4375C156.592 83.4375 157.4 83.7695 158.069 84.4336C158.743 85.0977 159.08 85.9009 159.08 86.8433ZM158.458 86.8433C158.458 86.0718 158.182 85.415 157.63 84.873C157.083 84.3311 156.419 84.0601 155.638 84.0601C154.856 84.0601 154.19 84.3335 153.638 84.8804C153.091 85.4224 152.818 86.0767 152.818 86.8433C152.818 87.605 153.091 88.2593 153.638 88.8062C154.19 89.353 154.856 89.6265 155.638 89.6265C156.419 89.6265 157.083 89.3555 157.63 88.8135C158.182 88.2666 158.458 87.6099 158.458 86.8433ZM162.332 83.6572V84.7778C162.698 84.3335 163.091 83.999 163.511 83.7744C163.931 83.5498 164.427 83.4375 164.998 83.4375C165.604 83.4375 166.163 83.5791 166.675 83.8623C167.188 84.1455 167.583 84.541 167.862 85.0488C168.145 85.5518 168.287 86.0815 168.287 86.6382C168.287 87.522 167.969 88.2788 167.334 88.9087C166.705 89.5337 165.928 89.8462 165.005 89.8462C163.907 89.8462 163.016 89.3994 162.332 88.5059V92.2119H163.826C163.973 92.2119 164.078 92.2388 164.141 92.2925C164.205 92.3511 164.236 92.4268 164.236 92.5195C164.236 92.6074 164.205 92.6807 164.141 92.7393C164.078 92.7979 163.973 92.8271 163.826 92.8271H160.889C160.743 92.8271 160.638 92.7979 160.574 92.7393C160.511 92.6855 160.479 92.6123 160.479 92.5195C160.479 92.4268 160.511 92.3511 160.574 92.2925C160.638 92.2388 160.743 92.2119 160.889 92.2119H161.717V84.2798H160.889C160.743 84.2798 160.638 84.2505 160.574 84.1919C160.511 84.1333 160.479 84.0576 160.479 83.9648C160.479 83.877 160.511 83.8037 160.574 83.7451C160.638 83.6865 160.743 83.6572 160.889 83.6572H162.332ZM167.664 86.6382C167.664 85.9302 167.405 85.3247 166.888 84.8218C166.375 84.314 165.748 84.0601 165.005 84.0601C164.258 84.0601 163.626 84.314 163.108 84.8218C162.591 85.3296 162.332 85.9351 162.332 86.6382C162.332 87.3462 162.591 87.9541 163.108 88.4619C163.626 88.9697 164.258 89.2236 165.005 89.2236C165.743 89.2236 166.37 88.9722 166.888 88.4692C167.405 87.9614 167.664 87.3511 167.664 86.6382ZM170.857 83.6572V84.2798C171.38 83.7183 171.905 83.4375 172.432 83.4375C172.75 83.4375 173.028 83.5229 173.267 83.6938C173.506 83.8599 173.707 84.1138 173.868 84.4556C174.141 84.1138 174.417 83.8599 174.695 83.6938C174.979 83.5229 175.262 83.4375 175.545 83.4375C175.989 83.4375 176.343 83.5815 176.607 83.8696C176.954 84.2407 177.127 84.646 177.127 85.0854V89.3848H177.647C177.793 89.3848 177.898 89.4141 177.962 89.4727C178.025 89.5264 178.057 89.5996 178.057 89.6924C178.057 89.7803 178.025 89.8535 177.962 89.9121C177.898 89.9707 177.793 90 177.647 90H176.512V85.144C176.512 84.8315 176.417 84.5728 176.226 84.3677C176.036 84.1626 175.816 84.0601 175.567 84.0601C175.342 84.0601 175.105 84.1455 174.856 84.3164C174.607 84.4824 174.324 84.812 174.007 85.3052V89.3848H174.52C174.666 89.3848 174.771 89.4141 174.834 89.4727C174.898 89.5264 174.93 89.5996 174.93 89.6924C174.93 89.7803 174.898 89.8535 174.834 89.9121C174.771 89.9707 174.666 90 174.52 90H173.384V85.188C173.384 84.8608 173.287 84.5923 173.091 84.3823C172.901 84.1675 172.686 84.0601 172.447 84.0601C172.227 84.0601 172.01 84.1309 171.795 84.2725C171.497 84.4727 171.185 84.8169 170.857 85.3052V89.3848H171.377C171.524 89.3848 171.629 89.4141 171.692 89.4727C171.756 89.5264 171.788 89.5996 171.788 89.6924C171.788 89.7803 171.756 89.8535 171.692 89.9121C171.629 89.9707 171.524 90 171.377 90H169.722C169.576 90 169.471 89.9707 169.407 89.9121C169.344 89.8535 169.312 89.7803 169.312 89.6924C169.312 89.5996 169.344 89.5264 169.407 89.4727C169.471 89.4141 169.576 89.3848 169.722 89.3848H170.242V84.2798H169.722C169.576 84.2798 169.471 84.2505 169.407 84.1919C169.344 84.1333 169.312 84.0576 169.312 83.9648C169.312 83.877 169.344 83.8037 169.407 83.7451C169.471 83.6865 169.576 83.6572 169.722 83.6572H170.857ZM185.997 86.9751H179.727C179.834 87.771 180.167 88.4131 180.723 88.9014C181.285 89.3848 181.978 89.6265 182.803 89.6265C183.262 89.6265 183.743 89.5508 184.246 89.3994C184.749 89.248 185.159 89.0479 185.477 88.7988C185.569 88.7256 185.65 88.689 185.718 88.689C185.796 88.689 185.865 88.7207 185.923 88.7842C185.982 88.8428 186.011 88.9136 186.011 88.9966C186.011 89.0796 185.972 89.1602 185.894 89.2383C185.66 89.4824 185.242 89.7119 184.642 89.9268C184.046 90.1367 183.433 90.2417 182.803 90.2417C181.749 90.2417 180.867 89.8975 180.159 89.209C179.456 88.5156 179.104 87.6782 179.104 86.6968C179.104 85.8032 179.434 85.0366 180.093 84.397C180.757 83.7573 181.578 83.4375 182.554 83.4375C183.56 83.4375 184.388 83.7671 185.037 84.4263C185.687 85.0806 186.006 85.9302 185.997 86.9751ZM185.374 86.3525C185.252 85.6738 184.93 85.1221 184.407 84.6973C183.89 84.2725 183.272 84.0601 182.554 84.0601C181.836 84.0601 181.219 84.27 180.701 84.6899C180.184 85.1099 179.861 85.6641 179.734 86.3525H185.374ZM189.688 83.6572V84.5874C190.118 84.1528 190.506 83.8525 190.853 83.6865C191.199 83.5205 191.59 83.4375 192.024 83.4375C192.493 83.4375 192.92 83.5376 193.306 83.7378C193.58 83.8843 193.826 84.1284 194.046 84.4702C194.271 84.8071 194.383 85.1538 194.383 85.5103V89.3848H194.903C195.049 89.3848 195.154 89.4141 195.218 89.4727C195.281 89.5264 195.313 89.5996 195.313 89.6924C195.313 89.7803 195.281 89.8535 195.218 89.9121C195.154 89.9707 195.049 90 194.903 90H193.255C193.104 90 192.996 89.9707 192.933 89.9121C192.869 89.8535 192.837 89.7803 192.837 89.6924C192.837 89.5996 192.869 89.5264 192.933 89.4727C192.996 89.4141 193.104 89.3848 193.255 89.3848H193.768V85.6128C193.768 85.1782 193.609 84.812 193.292 84.5142C192.974 84.2114 192.549 84.0601 192.017 84.0601C191.612 84.0601 191.26 84.1431 190.962 84.3091C190.665 84.4702 190.24 84.8755 189.688 85.5249V89.3848H190.384C190.53 89.3848 190.635 89.4141 190.699 89.4727C190.762 89.5264 190.794 89.5996 190.794 89.6924C190.794 89.7803 190.762 89.8535 190.699 89.9121C190.635 89.9707 190.53 90 190.384 90H188.377C188.23 90 188.125 89.9707 188.062 89.9121C187.999 89.8535 187.967 89.7803 187.967 89.6924C187.967 89.5996 187.999 89.5264 188.062 89.4727C188.125 89.4141 188.23 89.3848 188.377 89.3848H189.073V84.2798H188.553C188.406 84.2798 188.301 84.2505 188.238 84.1919C188.174 84.1333 188.143 84.0576 188.143 83.9648C188.143 83.877 188.174 83.8037 188.238 83.7451C188.301 83.6865 188.406 83.6572 188.553 83.6572H189.688ZM199.422 83.6572H202.762C202.908 83.6572 203.013 83.6865 203.077 83.7451C203.14 83.8037 203.172 83.8794 203.172 83.9722C203.172 84.0601 203.14 84.1333 203.077 84.1919C203.013 84.2505 202.908 84.2798 202.762 84.2798H199.422V88.374C199.422 88.7305 199.563 89.0283 199.847 89.2676C200.135 89.5068 200.555 89.6265 201.106 89.6265C201.521 89.6265 201.971 89.5654 202.454 89.4434C202.938 89.3164 203.313 89.1748 203.582 89.0186C203.68 88.9551 203.76 88.9233 203.824 88.9233C203.902 88.9233 203.97 88.9551 204.029 89.0186C204.087 89.0771 204.117 89.1479 204.117 89.231C204.117 89.3042 204.085 89.3726 204.021 89.436C203.865 89.5972 203.484 89.7729 202.879 89.9634C202.278 90.1489 201.702 90.2417 201.15 90.2417C200.433 90.2417 199.861 90.0732 199.437 89.7363C199.012 89.3994 198.799 88.9453 198.799 88.374V84.2798H197.664C197.518 84.2798 197.413 84.2505 197.349 84.1919C197.286 84.1333 197.254 84.0576 197.254 83.9648C197.254 83.877 197.286 83.8037 197.349 83.7451C197.413 83.6865 197.518 83.6572 197.664 83.6572H198.799V81.8408C198.799 81.6943 198.829 81.5894 198.887 81.5259C198.946 81.4624 199.019 81.4307 199.107 81.4307C199.2 81.4307 199.275 81.4624 199.334 81.5259C199.393 81.5894 199.422 81.6943 199.422 81.8408V83.6572Z" fill="black"/>
</svg>
