<svg width="431" height="111" viewBox="0 0 431 111" fill="none" xmlns="http://www.w3.org/2000/svg">
<path d="M7.5 68L7.5 1.29999L21.2 1.29999L21.2 56.9L51.6 56.9V68H7.5ZM91.1898 69.2C84.5898 69.2 78.8898 67.9667 74.0898 65.5C69.3565 62.9667 65.7232 59.1667 63.1898 54.1C60.6565 48.9667 59.3898 42.5 59.3898 34.7C59.3898 23.3 62.1232 14.7 67.5898 8.9C73.1232 3.03333 80.9898 0.099998 91.1898 0.099998C97.7898 0.099998 103.457 1.36666 108.19 3.9C112.99 6.36666 116.657 10.1667 119.19 15.3C121.723 20.3667 122.99 26.8 122.99 34.6C122.99 46 120.223 54.6333 114.69 60.5C109.223 66.3 101.39 69.2 91.1898 69.2ZM91.1898 57.8C95.1232 57.8 98.3898 57.0333 100.99 55.5C103.657 53.9667 105.657 51.5 106.99 48.1C108.323 44.6333 108.99 40.1333 108.99 34.6C108.99 29 108.323 24.5333 106.99 21.2C105.657 17.8 103.657 15.3333 100.99 13.8C98.3898 12.2667 95.1232 11.5 91.1898 11.5C87.2565 11.5 83.9565 12.3 81.2898 13.9C78.6898 15.4333 76.7232 17.9 75.3898 21.3C74.0565 24.6333 73.3898 29.1 73.3898 34.7C73.3898 40.3 74.0565 44.8 75.3898 48.2C76.7232 51.5333 78.6898 53.9667 81.2898 55.5C83.9565 57.0333 87.2565 57.8 91.1898 57.8ZM164.732 69.7C155.065 69.7 147.732 67.4667 142.732 63C137.799 58.4667 135.332 51.6 135.332 42.4V1.29999L149.432 1.29999V42C149.432 47.7333 150.632 51.9667 153.032 54.7C155.432 57.4333 159.132 58.8 164.132 58.8C168.865 58.8 172.499 57.4333 175.032 54.7C177.632 51.9667 178.932 47.7333 178.932 42V1.29999L191.932 1.29999V42.4C191.932 48.5333 190.799 53.6333 188.532 57.7C186.265 61.7667 183.099 64.8 179.032 66.8C174.965 68.7333 170.199 69.7 164.732 69.7Z" fill="#333333"/>
<path d="M218.591 105L218.591 49.2L198.491 49.2V38.3L252.491 38.3V49.2L232.191 49.2L232.191 105L218.591 105ZM291.685 106.7C282.018 106.7 274.685 104.467 269.685 100C264.752 95.4667 262.285 88.6 262.285 79.4V38.3H276.385V79C276.385 84.7333 277.585 88.9667 279.985 91.7C282.385 94.4333 286.085 95.8 291.085 95.8C295.818 95.8 299.452 94.4333 301.985 91.7C304.585 88.9667 305.885 84.7333 305.885 79V38.3H318.885V79.4C318.885 85.5333 317.752 90.6333 315.485 94.7C313.218 98.7667 310.052 101.8 305.985 103.8C301.918 105.733 297.152 106.7 291.685 106.7ZM355.267 106.2C351.934 106.2 348.934 106.033 346.267 105.7C343.667 105.367 341.267 104.833 339.067 104.1C336.867 103.367 334.667 102.433 332.467 101.3V88.1C335.267 90.3667 338.567 92.1667 342.367 93.5C346.167 94.7667 350.001 95.4 353.867 95.4C357.467 95.4 360.167 94.7 361.967 93.3C363.834 91.8333 364.767 89.7667 364.767 87.1C364.767 85.0333 364.001 83.3667 362.467 82.1C361.001 80.8333 359.034 79.7333 356.567 78.8C354.101 77.8667 351.401 76.9 348.467 75.9C346.401 75.1667 344.367 74.3667 342.367 73.5C340.434 72.5667 338.667 71.4 337.067 70C335.534 68.6 334.301 66.8667 333.367 64.8C332.434 62.6667 331.967 60.0667 331.967 57C331.967 54.5333 332.434 52.1 333.367 49.7C334.301 47.3 335.734 45.1333 337.667 43.2C339.601 41.2667 342.101 39.7333 345.167 38.6C348.301 37.4667 351.967 36.9 356.167 36.9C358.901 36.9 361.267 37.0667 363.267 37.4C365.334 37.7333 367.267 38.2333 369.067 38.9C370.934 39.5667 372.901 40.4 374.967 41.4V54.6C373.367 53.4667 371.667 52.4 369.867 51.4C368.067 50.3333 366.134 49.4667 364.067 48.8C362.067 48.1333 359.867 47.7667 357.467 47.7C355.067 47.6333 353.001 47.9 351.267 48.5C349.534 49.1 348.201 50 347.267 51.2C346.334 52.4 345.867 53.8333 345.867 55.5C345.867 57.5667 346.434 59.2333 347.567 60.5C348.767 61.7 350.401 62.7 352.467 63.5C354.534 64.3 356.867 65.1 359.467 65.9C362.067 66.7 364.534 67.6 366.867 68.6C369.201 69.6 371.234 70.8333 372.967 72.3C374.767 73.7 376.167 75.4667 377.167 77.6C378.167 79.7333 378.667 82.3333 378.667 85.4C378.667 89.1333 377.801 92.6 376.067 95.8C374.401 98.9333 371.834 101.467 368.367 103.4C364.901 105.267 360.534 106.2 355.267 106.2Z" fill="#86C7C4"/>
</svg>